<svg width="36" height="36" viewBox="0 0 36 36" fill="none" xmlns="http://www.w3.org/2000/svg">
<path d="M28.7188 4H7.28125C5.47197 4 4 5.47197 4 7.28125V28.7188C4 30.528 5.47197 32 7.28125 32H28.7188C30.528 32 32 30.528 32 28.7188V7.28125C32 5.47197 30.528 4 28.7188 4ZM29.8125 28.7188C29.8125 29.3218 29.3218 29.8125 28.7188 29.8125H22.4844V20.8984H25.8635L26.4219 17.5078H22.4844V15.1562C22.4844 14.2279 23.1967 13.5156 24.125 13.5156H26.3672V10.125H24.125C21.3401 10.125 19.095 12.3809 19.095 15.1658V17.5078H15.8125V20.8984H19.095V29.8125H7.28125C6.67816 29.8125 6.1875 29.3218 6.1875 28.7188V7.28125C6.1875 6.67816 6.67816 6.1875 7.28125 6.1875H28.7188C29.3218 6.1875 29.8125 6.67816 29.8125 7.28125V28.7188Z" fill="#989898"/>
</svg>
